<svg width="1440" height="899" viewBox="0 0 1440 899" fill="none" xmlns="http://www.w3.org/2000/svg">
<g clip-path="url(#clip0_10126_185030)">
<rect y="-9" width="1440" height="960" fill="#538FF7"/>
<ellipse cx="1105.54" cy="462.132" rx="384.017" ry="381.903" fill="#65B867" stroke="#202124" stroke-width="2"/>
<path d="M1104.01 81.0751V844" stroke="#202124" stroke-width="2"/>
<line x1="1487.02" y1="461.018" x2="718.981" y2="461.018" stroke="#202124" stroke-width="2"/>
<path d="M1102.81 81.0282C956.688 239.001 873.508 569.111 1102.81 843.657" stroke="#202124" stroke-width="2"/>
<path d="M1102.81 81.0282C811.311 125.889 651.79 675.43 1102.81 843.657" stroke="#202124" stroke-width="2"/>
<path d="M1104.49 843.655C1250.61 685.682 1333.79 355.572 1104.49 81.0258" stroke="#202124" stroke-width="2"/>
<path d="M1104.49 843.659C1395.99 798.798 1555.51 249.257 1104.49 81.0296" stroke="#202124" stroke-width="2"/>
<path d="M874.631 151.703C949.398 208.829 1144.91 288.806 1328.84 151.703" stroke="#202124" stroke-width="2"/>
<path d="M756.855 294.694C871.775 351.821 1172.29 431.797 1454.99 294.694" stroke="#202124" stroke-width="2"/>
<path d="M874.627 765.726C950.086 708.6 1147.41 628.623 1333.04 765.726" stroke="#202124" stroke-width="2"/>
<path d="M756.871 622.73C871.791 565.604 1172.31 485.627 1455.01 622.73" stroke="#202124" stroke-width="2"/>
<mask id="path-13-inside-1_10126_185030" fill="white">
<path fill-rule="evenodd" clip-rule="evenodd" d="M707.231 102.181C696.215 102.181 687.285 111.111 687.285 122.127V152.172C687.285 163.188 696.215 172.118 707.231 172.118H827.911L851.093 191.377C855.967 195.426 863.352 191.96 863.352 185.624V172.118H921.32C932.335 172.118 941.265 163.188 941.265 152.172V122.127C941.265 111.111 932.335 102.181 921.32 102.181H707.231Z"/>
</mask>
<path fill-rule="evenodd" clip-rule="evenodd" d="M707.231 102.181C696.215 102.181 687.285 111.111 687.285 122.127V152.172C687.285 163.188 696.215 172.118 707.231 172.118H827.911L851.093 191.377C855.967 195.426 863.352 191.96 863.352 185.624V172.118H921.32C932.335 172.118 941.265 163.188 941.265 152.172V122.127C941.265 111.111 932.335 102.181 921.32 102.181H707.231Z" fill="#EC5E4F"/>
<path d="M827.911 172.118L829.189 170.579L828.633 170.118H827.911V172.118ZM851.093 191.377L852.371 189.839L852.371 189.839L851.093 191.377ZM863.352 172.118V170.118H861.352V172.118H863.352ZM689.285 122.127C689.285 112.216 697.32 104.181 707.231 104.181V100.181C695.11 100.181 685.285 110.006 685.285 122.127H689.285ZM689.285 152.172V122.127H685.285V152.172H689.285ZM707.231 170.118C697.32 170.118 689.285 162.083 689.285 152.172H685.285C685.285 164.292 695.11 174.118 707.231 174.118V170.118ZM827.911 170.118H707.231V174.118H827.911V170.118ZM826.633 173.656L849.815 192.915L852.371 189.839L829.189 170.579L826.633 173.656ZM849.815 192.915C855.992 198.047 865.352 193.654 865.352 185.624H861.352C861.352 190.266 855.942 192.805 852.371 189.839L849.815 192.915ZM865.352 185.624V172.118H861.352V185.624H865.352ZM921.32 170.118H863.352V174.118H921.32V170.118ZM939.265 152.172C939.265 162.083 931.231 170.118 921.32 170.118V174.118C933.44 174.118 943.265 164.292 943.265 152.172H939.265ZM939.265 122.127V152.172H943.265V122.127H939.265ZM921.32 104.181C931.231 104.181 939.265 112.216 939.265 122.127H943.265C943.265 110.006 933.44 100.181 921.32 100.181V104.181ZM707.231 104.181H921.32V100.181H707.231V104.181Z" fill="#202124" mask="url(#path-13-inside-1_10126_185030)"/>
<path d="M726.205 123.481V126.435C729.085 126.69 732.221 126.836 735.868 126.836C739.223 126.836 743.197 126.581 745.677 126.398V123.408C743.052 123.7 739.369 123.919 735.868 123.919C732.185 123.919 728.83 123.773 726.205 123.481ZM727.663 138.177L724.71 137.885C724.381 139.343 723.98 141.057 723.98 142.953C723.98 147.548 728.283 149.955 735.686 149.955C740.864 149.955 745.495 149.408 748.12 148.715L748.084 145.579C745.312 146.454 740.608 147.001 735.613 147.001C729.778 147.001 726.934 145.105 726.934 142.297C726.934 140.948 727.226 139.599 727.663 138.177ZM773.585 121.986L770.339 120.673C769.902 121.767 769.428 122.642 769.027 123.518C767.021 127.018 759.035 141.969 756.373 149.335L759.509 150.429C760.02 148.642 761.551 144.303 762.682 142.151C764.067 139.27 766.839 136.28 769.756 136.28C771.397 136.28 772.345 137.265 772.418 138.833C772.527 140.838 772.491 143.646 772.6 145.798C772.71 147.949 773.986 150.392 777.888 150.392C783.175 150.392 786.238 146.308 788.171 140.437L785.728 138.468C784.816 142.37 782.409 147.402 778.325 147.402C776.757 147.402 775.517 146.6 775.408 144.777C775.262 142.99 775.335 140.219 775.262 138.067C775.153 135.186 773.402 133.618 770.959 133.618C769.209 133.618 767.313 134.311 765.562 135.879C767.422 132.342 770.777 126.289 772.418 123.773C772.819 123.08 773.257 122.424 773.585 121.986ZM806.196 124.429L806.233 127.383C810.208 127.82 817.282 127.82 821.184 127.383V124.429C817.574 124.976 810.171 125.122 806.196 124.429ZM807.619 139.307L804.993 139.052C804.592 140.802 804.41 142.115 804.41 143.318C804.41 146.746 807.145 148.788 813.234 148.788C817.027 148.788 820.09 148.496 822.351 148.022L822.278 144.959C819.36 145.652 816.516 145.944 813.271 145.944C808.275 145.944 807.108 144.303 807.108 142.625C807.108 141.641 807.29 140.62 807.619 139.307ZM799.268 121.621L796.023 121.366C795.986 122.168 795.877 123.08 795.767 123.919C795.33 126.945 794.127 133.181 794.127 138.541C794.127 143.5 794.746 147.694 795.476 150.283L798.065 150.101C798.028 149.7 797.992 149.189 797.955 148.824C797.955 148.387 798.028 147.694 798.138 147.183C798.466 145.433 799.815 141.604 800.727 139.015L799.195 137.812C798.575 139.307 797.737 141.495 797.117 143.136C796.898 141.349 796.788 139.817 796.788 138.067C796.788 133.947 797.919 127.456 798.612 124.065C798.758 123.408 799.049 122.241 799.268 121.621ZM840.996 120.491L837.714 120.345C837.787 121.33 837.714 122.205 837.568 123.372C837.131 126.872 835.198 135.916 832.427 141.349L835.125 142.297C835.49 141.677 835.818 141.167 836.256 140.62C838.662 137.739 842.71 136.244 847.049 136.244C851.316 136.244 853.54 138.359 853.54 141.057C853.54 147.074 845.372 148.496 836.912 147.329L837.678 150.247C848.763 151.413 856.53 148.606 856.53 140.984C856.53 136.718 853.139 133.764 847.341 133.764C843.549 133.764 840.267 134.676 837.094 136.9C838.334 133.509 839.793 126.471 840.303 123.554C840.522 122.606 840.704 121.476 840.996 120.491ZM829.655 125.158L829.692 128.003C831.77 128.185 834.104 128.367 836.584 128.367C841.58 128.367 849.018 127.638 854.196 126.726L854.124 123.919C848.398 125.195 841.215 125.742 836.547 125.742C834.359 125.742 831.588 125.487 829.655 125.158ZM876.051 127.492L876.087 130.264C878.202 130.409 880.099 130.482 882.214 130.482C886.48 130.482 890.929 130.191 894.794 129.534V126.726C891.111 127.492 886.626 127.82 882.25 127.82C880.099 127.82 878.129 127.711 876.051 127.492ZM888.814 120.965H885.532C885.641 121.621 885.678 122.569 885.678 123.226C885.678 124.502 885.714 126.799 885.714 129.316C885.714 134.129 886.188 140.948 886.188 143.573C886.188 146.017 885.313 147.548 882.25 147.548C879.588 147.548 877.801 146.564 877.801 144.667C877.801 142.917 879.697 141.714 882.432 141.714C887.063 141.714 890.746 144.193 894.575 147.767L896.143 145.36C893.08 142.589 888.814 139.489 882.688 139.489C877.874 139.489 875.176 141.896 875.176 144.959C875.176 148.241 877.838 150.21 882.724 150.21C887.647 150.21 889.033 147.293 889.033 144.303C889.033 140.547 888.486 134.858 888.486 129.243C888.486 127.091 888.522 124.502 888.595 123.153C888.631 122.46 888.704 121.694 888.814 120.965ZM870.836 121.22L867.627 120.929C867.591 121.731 867.518 122.679 867.372 123.554C866.935 126.544 865.695 133.509 865.695 138.869C865.695 143.792 866.388 147.803 867.081 150.429L869.67 150.21C869.633 149.845 869.597 149.298 869.56 148.934C869.524 148.533 869.597 147.803 869.706 147.293C870.071 145.506 871.42 141.787 872.331 139.234L870.836 138.067C870.217 139.562 869.305 141.787 868.721 143.464C868.466 141.677 868.357 140.146 868.357 138.359C868.357 134.275 869.451 127.055 870.18 123.663C870.326 123.007 870.618 121.804 870.836 121.22Z" fill="black"/>
<mask id="path-16-inside-2_10126_185030" fill="white">
<path fill-rule="evenodd" clip-rule="evenodd" d="M836.983 309.779C826.68 309.779 818.328 318.131 818.328 328.434V357.061C818.328 367.364 826.68 375.716 836.983 375.716H922.301L940.772 392.472C945.267 396.55 952.467 393.361 952.467 387.291V375.716H984.979C995.281 375.716 1003.63 367.364 1003.63 357.061V328.434C1003.63 318.131 995.281 309.779 984.979 309.779H836.983Z"/>
</mask>
<path fill-rule="evenodd" clip-rule="evenodd" d="M836.983 309.779C826.68 309.779 818.328 318.131 818.328 328.434V357.061C818.328 367.364 826.68 375.716 836.983 375.716H922.301L940.772 392.472C945.267 396.55 952.467 393.361 952.467 387.291V375.716H984.979C995.281 375.716 1003.63 367.364 1003.63 357.061V328.434C1003.63 318.131 995.281 309.779 984.979 309.779H836.983Z" fill="#202124"/>
<path d="M922.301 375.716L923.645 374.235L923.074 373.716H922.301V375.716ZM940.772 392.472L939.428 393.953L939.428 393.953L940.772 392.472ZM952.467 375.716V373.716H950.467V375.716H952.467ZM820.328 328.434C820.328 319.235 827.785 311.779 836.983 311.779V307.779C825.576 307.779 816.328 317.026 816.328 328.434H820.328ZM820.328 357.061V328.434H816.328V357.061H820.328ZM836.983 373.716C827.785 373.716 820.328 366.259 820.328 357.061H816.328C816.328 368.468 825.576 377.716 836.983 377.716V373.716ZM922.301 373.716H836.983V377.716H922.301V373.716ZM920.958 377.197L939.428 393.953L942.115 390.991L923.645 374.235L920.958 377.197ZM939.428 393.953C945.208 399.198 954.467 395.096 954.467 387.291H950.467C950.467 391.625 945.325 393.903 942.115 390.991L939.428 393.953ZM954.467 387.291V375.716H950.467V387.291H954.467ZM984.979 373.716H952.467V377.716H984.979V373.716ZM1001.63 357.061C1001.63 366.259 994.177 373.716 984.979 373.716V377.716C996.386 377.716 1005.63 368.468 1005.63 357.061H1001.63ZM1001.63 328.434V357.061H1005.63V328.434H1001.63ZM984.979 311.779C994.177 311.779 1001.63 319.235 1001.63 328.434H1005.63C1005.63 317.026 996.386 307.779 984.979 307.779V311.779ZM836.983 311.779H984.979V307.779H836.983V311.779Z" fill="#202124" mask="url(#path-16-inside-2_10126_185030)"/>
<path d="M851.818 327.77H860.992C862.288 327.77 863.482 328.054 864.573 328.623C865.688 329.191 866.574 329.976 867.234 330.976C867.893 331.976 868.223 333.079 868.223 334.284C868.223 335.489 867.916 336.535 867.302 337.422C866.711 338.309 865.926 338.979 864.949 339.434V339.639C866.176 340.071 867.165 340.787 867.916 341.787C868.689 342.788 869.075 343.959 869.075 345.3C869.075 346.642 868.723 347.835 868.018 348.881C867.336 349.927 866.404 350.746 865.221 351.337C864.062 351.905 862.789 352.189 861.402 352.189H851.818V327.77ZM860.822 338.002C861.913 338.002 862.789 337.661 863.448 336.979C864.13 336.296 864.471 335.512 864.471 334.625C864.471 333.739 864.141 332.965 863.482 332.306C862.845 331.624 862.004 331.283 860.958 331.283H855.638V338.002H860.822ZM861.402 348.643C862.561 348.643 863.482 348.279 864.164 347.551C864.869 346.824 865.221 345.982 865.221 345.027C865.221 344.05 864.858 343.208 864.13 342.504C863.425 341.776 862.47 341.412 861.265 341.412H855.638V348.643H861.402ZM880.305 352.735C878.554 352.735 876.985 352.337 875.598 351.541C874.211 350.723 873.131 349.609 872.358 348.199C871.585 346.789 871.199 345.221 871.199 343.493C871.199 341.765 871.585 340.196 872.358 338.786C873.131 337.376 874.211 336.274 875.598 335.478C876.985 334.659 878.554 334.25 880.305 334.25C882.055 334.25 883.624 334.659 885.011 335.478C886.398 336.296 887.478 337.411 888.251 338.82C889.024 340.23 889.411 341.787 889.411 343.493C889.411 345.221 889.024 346.789 888.251 348.199C887.478 349.609 886.398 350.723 885.011 351.541C883.624 352.337 882.055 352.735 880.305 352.735ZM880.305 349.291C881.26 349.291 882.146 349.063 882.965 348.608C883.783 348.131 884.431 347.46 884.909 346.596C885.409 345.709 885.659 344.675 885.659 343.493C885.659 342.31 885.409 341.287 884.909 340.423C884.431 339.559 883.783 338.9 882.965 338.445C882.146 337.968 881.26 337.729 880.305 337.729C879.35 337.729 878.463 337.968 877.645 338.445C876.826 338.9 876.167 339.559 875.666 340.423C875.189 341.287 874.95 342.31 874.95 343.493C874.95 344.675 875.189 345.709 875.666 346.596C876.167 347.46 876.826 348.131 877.645 348.608C878.463 349.063 879.35 349.291 880.305 349.291ZM892.07 334.796H895.651V337.081H895.822C896.322 336.262 897.061 335.592 898.039 335.069C899.039 334.523 900.097 334.25 901.211 334.25C903.325 334.25 904.928 334.875 906.019 336.126C907.134 337.354 907.691 339.036 907.691 341.173V352.189H903.939V341.685C903.939 340.321 903.598 339.32 902.916 338.684C902.257 338.047 901.336 337.729 900.153 337.729C899.312 337.729 898.562 337.968 897.902 338.445C897.243 338.9 896.731 339.514 896.368 340.287C896.004 341.06 895.822 341.89 895.822 342.776V352.189H892.07V334.796ZM913.603 332.272C912.898 332.272 912.296 332.033 911.795 331.556C911.318 331.056 911.079 330.453 911.079 329.748C911.079 329.043 911.318 328.452 911.795 327.975C912.296 327.475 912.898 327.224 913.603 327.224C914.308 327.224 914.899 327.475 915.376 327.975C915.877 328.452 916.127 329.043 916.127 329.748C916.127 330.453 915.877 331.056 915.376 331.556C914.899 332.033 914.308 332.272 913.603 332.272ZM910.261 359.897C909.533 359.897 908.896 359.818 908.351 359.659V356.043C908.851 356.316 909.385 356.453 909.954 356.453C910.59 356.453 911.045 356.259 911.318 355.873C911.591 355.486 911.727 354.907 911.727 354.133V334.796H915.479V354.202C915.479 356.134 915.001 357.567 914.046 358.499C913.114 359.431 911.852 359.897 910.261 359.897ZM927.665 352.735C925.915 352.735 924.346 352.337 922.959 351.541C921.572 350.723 920.492 349.609 919.719 348.199C918.946 346.789 918.559 345.221 918.559 343.493C918.559 341.765 918.946 340.196 919.719 338.786C920.492 337.376 921.572 336.274 922.959 335.478C924.346 334.659 925.915 334.25 927.665 334.25C929.416 334.25 930.985 334.659 932.372 335.478C933.759 336.296 934.839 337.411 935.612 338.82C936.385 340.23 936.772 341.787 936.772 343.493C936.772 345.221 936.385 346.789 935.612 348.199C934.839 349.609 933.759 350.723 932.372 351.541C930.985 352.337 929.416 352.735 927.665 352.735ZM927.665 349.291C928.62 349.291 929.507 349.063 930.326 348.608C931.144 348.131 931.792 347.46 932.27 346.596C932.77 345.709 933.02 344.675 933.02 343.493C933.02 342.31 932.77 341.287 932.27 340.423C931.792 339.559 931.144 338.9 930.326 338.445C929.507 337.968 928.62 337.729 927.665 337.729C926.711 337.729 925.824 337.968 925.005 338.445C924.187 338.9 923.527 339.559 923.027 340.423C922.55 341.287 922.311 342.31 922.311 343.493C922.311 344.675 922.55 345.709 923.027 346.596C923.527 347.46 924.187 348.131 925.005 348.608C925.824 349.063 926.711 349.291 927.665 349.291ZM945.941 352.735C943.827 352.735 942.212 352.11 941.098 350.859C940.007 349.586 939.461 347.824 939.461 345.573V334.796H943.213V345.061C943.213 346.471 943.543 347.528 944.202 348.233C944.884 348.938 945.771 349.291 946.862 349.291C947.749 349.291 948.533 349.063 949.215 348.608C949.898 348.131 950.42 347.506 950.784 346.733C951.148 345.96 951.33 345.13 951.33 344.243V334.796H955.082V352.189H951.535V349.939H951.33C950.852 350.757 950.114 351.428 949.113 351.951C948.113 352.474 947.055 352.735 945.941 352.735ZM958.982 334.796H962.563V337.354H962.733C963.12 336.467 963.791 335.739 964.745 335.171C965.7 334.58 966.712 334.284 967.781 334.284C968.622 334.284 969.327 334.398 969.895 334.625V338.513C968.895 338.149 967.997 337.968 967.201 337.968C966.337 337.968 965.564 338.195 964.882 338.65C964.223 339.104 963.7 339.718 963.313 340.491C962.927 341.242 962.733 342.072 962.733 342.981V352.189H958.982V334.796Z" fill="#E3E3E3"/>
<mask id="path-19-inside-3_10126_185030" fill="white">
<path fill-rule="evenodd" clip-rule="evenodd" d="M1317.53 628.59C1327.72 628.59 1335.97 620.334 1335.97 610.15V573.657C1335.97 563.472 1327.72 555.217 1317.53 555.217H1255.45L1231.05 534.943C1226.54 531.2 1219.72 534.404 1219.72 540.262V555.217H1207.67C1197.48 555.217 1189.23 563.473 1189.23 573.657V610.15C1189.23 620.334 1197.48 628.59 1207.67 628.59H1317.53Z"/>
</mask>
<path fill-rule="evenodd" clip-rule="evenodd" d="M1317.53 628.59C1327.72 628.59 1335.97 620.334 1335.97 610.15V573.657C1335.97 563.472 1327.72 555.217 1317.53 555.217H1255.45L1231.05 534.943C1226.54 531.2 1219.72 534.404 1219.72 540.262V555.217H1207.67C1197.48 555.217 1189.23 563.473 1189.23 573.657V610.15C1189.23 620.334 1197.48 628.59 1207.67 628.59H1317.53Z" fill="#E3E3E3"/>
<path d="M1255.45 555.217L1254.17 556.755L1254.73 557.217H1255.45V555.217ZM1231.05 534.943L1229.77 536.482L1229.77 536.482L1231.05 534.943ZM1219.72 555.217V557.217H1221.72V555.217H1219.72ZM1333.97 610.15C1333.97 619.229 1326.61 626.59 1317.53 626.59V630.59C1328.82 630.59 1337.97 621.439 1337.97 610.15H1333.97ZM1333.97 573.657V610.15H1337.97V573.657H1333.97ZM1317.53 557.217C1326.61 557.217 1333.97 564.577 1333.97 573.657H1337.97C1337.97 562.368 1328.82 553.217 1317.53 553.217V557.217ZM1255.45 557.217H1317.53V553.217H1255.45V557.217ZM1256.73 553.678L1232.33 533.405L1229.77 536.482L1254.17 556.755L1256.73 553.678ZM1232.33 533.405C1226.52 528.579 1217.72 532.71 1217.72 540.262H1221.72C1221.72 536.098 1226.57 533.821 1229.77 536.482L1232.33 533.405ZM1217.72 540.262V555.217H1221.72V540.262H1217.72ZM1207.67 557.217H1219.72V553.217H1207.67V557.217ZM1191.23 573.657C1191.23 564.577 1198.59 557.217 1207.67 557.217V553.217C1196.38 553.217 1187.23 562.368 1187.23 573.657H1191.23ZM1191.23 610.15V573.657H1187.23V610.15H1191.23ZM1207.67 626.59C1198.59 626.59 1191.23 619.229 1191.23 610.15H1187.23C1187.23 621.439 1196.38 630.59 1207.67 630.59V626.59ZM1317.53 626.59H1207.67V630.59H1317.53V626.59Z" fill="#202124" mask="url(#path-19-inside-3_10126_185030)"/>
<path d="M1231.03 601.203V597.991H1235.68V601.203H1231.03ZM1227.43 601.203V573.57H1231.03V601.203H1227.43ZM1235.68 601.203V597.991C1235.99 597.991 1236.19 598.133 1236.3 598.417C1236.4 598.701 1236.45 599.088 1236.45 599.578C1236.45 600.068 1236.4 600.468 1236.3 600.778C1236.19 601.061 1235.99 601.203 1235.68 601.203ZM1242.98 601.203V597.991H1247.12V601.203H1242.98ZM1235.2 601.203V597.991H1241.2L1239.34 599.462V581.813H1242.98V601.203H1235.2ZM1235.2 601.203C1234.87 601.203 1234.66 601.061 1234.58 600.778C1234.48 600.468 1234.43 600.068 1234.43 599.578C1234.43 599.088 1234.48 598.701 1234.58 598.417C1234.66 598.133 1234.87 597.991 1235.2 597.991V601.203ZM1247.12 601.203V597.991C1247.46 597.991 1247.66 598.133 1247.74 598.417C1247.84 598.701 1247.9 599.088 1247.9 599.578C1247.9 600.068 1247.84 600.468 1247.74 600.778C1247.66 601.061 1247.46 601.203 1247.12 601.203ZM1239.34 608.518V604.764H1242.98V608.518H1239.34ZM1246.65 601.203V597.991H1263.6L1262.44 598.959V590.018C1262.44 588.393 1261.92 587.167 1260.89 586.342C1259.88 585.516 1258.31 585.103 1256.17 585.103C1255.52 585.103 1254.59 585.155 1253.38 585.258C1252.19 585.361 1250.93 585.516 1249.59 585.722L1249.2 582.781C1250.26 582.523 1251.41 582.304 1252.65 582.123C1253.88 581.916 1255.08 581.813 1256.24 581.813C1258.26 581.813 1259.99 582.136 1261.43 582.781C1262.9 583.426 1264.04 584.368 1264.84 585.606C1265.64 586.819 1266.04 588.29 1266.04 590.018V601.203H1246.65ZM1246.65 601.203C1246.31 601.203 1246.1 601.061 1246.03 600.778C1245.92 600.468 1245.87 600.068 1245.87 599.578C1245.87 599.088 1245.92 598.701 1246.03 598.417C1246.1 598.133 1246.31 597.991 1246.65 597.991V601.203ZM1275.19 601.203V597.991H1280.15V601.203H1275.19ZM1268.54 610.066C1268.2 610.066 1267.85 610.04 1267.49 609.989C1267.11 609.963 1266.72 609.937 1266.33 609.911L1266.64 606.699C1267.03 606.725 1267.39 606.751 1267.73 606.777C1268.03 606.802 1268.29 606.815 1268.5 606.815C1269.66 606.815 1270.59 606.377 1271.29 605.499C1272.01 604.622 1272.37 603.396 1272.37 601.823V581.813H1276.01V601.823C1276.01 603.448 1275.69 604.88 1275.04 606.119C1274.39 607.357 1273.52 608.325 1272.41 609.021C1271.3 609.718 1270.01 610.066 1268.54 610.066ZM1280.15 601.203V597.991C1280.48 597.991 1280.69 598.133 1280.77 598.417C1280.87 598.701 1280.92 599.088 1280.92 599.578C1280.92 600.068 1280.87 600.468 1280.77 600.778C1280.69 601.061 1280.48 601.203 1280.15 601.203ZM1279.7 601.203V597.991H1300.56L1298.28 599.694V591.682C1298.28 589.98 1298.09 588.651 1297.7 587.696C1297.34 586.741 1296.69 586.058 1295.76 585.645C1294.84 585.232 1293.57 585.026 1291.97 585.026C1290.89 585.026 1289.82 585.103 1288.76 585.258C1287.7 585.413 1286.88 585.619 1286.28 585.877L1288.49 583.71C1288.33 584.303 1288.18 585.064 1288.02 585.993C1287.87 586.922 1287.74 587.928 1287.64 589.012C1287.53 590.07 1287.48 591.128 1287.48 592.186C1287.48 593.243 1287.53 594.288 1287.64 595.321C1287.74 596.353 1287.86 597.256 1287.98 598.03C1288.11 598.804 1288.22 599.333 1288.29 599.617L1284.85 600.584C1284.75 600.249 1284.62 599.668 1284.46 598.842C1284.33 598.017 1284.21 597.023 1284.08 595.862C1283.97 594.701 1283.92 593.476 1283.92 592.186C1283.92 590.921 1283.97 589.696 1284.08 588.509C1284.21 587.296 1284.35 586.2 1284.5 585.219C1284.68 584.239 1284.85 583.452 1285 582.858C1285.6 582.626 1286.51 582.394 1287.75 582.162C1289.02 581.929 1290.42 581.813 1291.97 581.813C1294.16 581.813 1296 582.136 1297.47 582.781C1298.96 583.426 1300.07 584.471 1300.8 585.916C1301.54 587.335 1301.92 589.257 1301.92 591.682V601.203H1279.7ZM1279.7 601.203C1279.37 601.203 1279.16 601.061 1279.08 600.778C1278.98 600.468 1278.93 600.068 1278.93 599.578C1278.93 599.088 1278.98 598.701 1279.08 598.417C1279.16 598.133 1279.37 597.991 1279.7 597.991V601.203Z" fill="#202124"/>
<mask id="path-22-inside-4_10126_185030" fill="white">
<path fill-rule="evenodd" clip-rule="evenodd" d="M759.018 750.484C749.688 750.484 742.125 742.92 742.125 733.59V697.897C742.125 688.568 749.688 681.004 759.018 681.004H820.253L843.711 661.516C847.839 658.087 854.094 661.023 854.094 666.389V681.004H860.435C869.765 681.004 877.328 688.568 877.328 697.897V733.59C877.328 742.92 869.765 750.484 860.435 750.484H759.018Z"/>
</mask>
<path fill-rule="evenodd" clip-rule="evenodd" d="M759.018 750.484C749.688 750.484 742.125 742.92 742.125 733.59V697.897C742.125 688.568 749.688 681.004 759.018 681.004H820.253L843.711 661.516C847.839 658.087 854.094 661.023 854.094 666.389V681.004H860.435C869.765 681.004 877.328 688.568 877.328 697.897V733.59C877.328 742.92 869.765 750.484 860.435 750.484H759.018Z" fill="#F6BD41"/>
<path d="M820.253 681.004L821.531 682.543L820.976 683.004H820.253V681.004ZM843.711 661.516L844.989 663.055L844.989 663.055L843.711 661.516ZM854.094 681.004V683.004H852.094V681.004H854.094ZM744.125 733.59C744.125 741.816 750.793 748.484 759.018 748.484V752.484C748.584 752.484 740.125 744.025 740.125 733.59H744.125ZM744.125 697.897V733.59H740.125V697.897H744.125ZM759.018 683.004C750.793 683.004 744.125 689.672 744.125 697.897H740.125C740.125 687.463 748.584 679.004 759.018 679.004V683.004ZM820.253 683.004H759.018V679.004H820.253V683.004ZM818.975 679.466L842.433 659.978L844.989 663.055L821.531 682.543L818.975 679.466ZM842.433 659.978C847.864 655.466 856.094 659.328 856.094 666.389H852.094C852.094 662.717 847.813 660.708 844.989 663.055L842.433 659.978ZM856.094 666.389V681.004H852.094V666.389H856.094ZM860.435 683.004H854.094V679.004H860.435V683.004ZM875.328 697.897C875.328 689.672 868.66 683.004 860.435 683.004V679.004C870.869 679.004 879.328 687.463 879.328 697.897H875.328ZM875.328 733.59V697.897H879.328V733.59H875.328ZM860.435 748.484C868.66 748.484 875.328 741.816 875.328 733.59H879.328C879.328 744.025 870.869 752.484 860.435 752.484V748.484ZM759.018 748.484H860.435V752.484H759.018V748.484Z" fill="#202124" mask="url(#path-22-inside-4_10126_185030)"/>
<path d="M775.767 701.884H779.738V712.415H791.51V701.884H795.445V727.271H791.51V716.173H779.738V727.271H775.767V701.884ZM808.665 727.838C806.845 727.838 805.214 727.425 803.772 726.597C802.33 725.746 801.207 724.588 800.403 723.123C799.6 721.657 799.198 720.026 799.198 718.23C799.198 716.433 799.6 714.802 800.403 713.337C801.207 711.871 802.33 710.725 803.772 709.897C805.214 709.046 806.845 708.621 808.665 708.621C810.485 708.621 812.116 709.046 813.558 709.897C815 710.748 816.123 711.907 816.926 713.372C817.73 714.838 818.132 716.457 818.132 718.23C818.132 720.026 817.73 721.657 816.926 723.123C816.123 724.588 815 725.746 813.558 726.597C812.116 727.425 810.485 727.838 808.665 727.838ZM808.665 724.257C809.658 724.257 810.58 724.021 811.431 723.548C812.281 723.052 812.955 722.354 813.452 721.456C813.972 720.534 814.232 719.459 814.232 718.23C814.232 717.001 813.972 715.937 813.452 715.039C812.955 714.14 812.281 713.455 811.431 712.982C810.58 712.486 809.658 712.237 808.665 712.237C807.672 712.237 806.75 712.486 805.899 712.982C805.048 713.455 804.363 714.14 803.843 715.039C803.346 715.937 803.098 717.001 803.098 718.23C803.098 719.459 803.346 720.534 803.843 721.456C804.363 722.354 805.048 723.052 805.899 723.548C806.75 724.021 807.672 724.257 808.665 724.257ZM821.132 701.884H825.033V727.271H821.132V701.884ZM834.693 727.838C833.393 727.838 832.235 727.59 831.219 727.094C830.202 726.574 829.41 725.853 828.843 724.931C828.276 723.985 827.992 722.922 827.992 721.74C827.992 719.872 828.689 718.395 830.084 717.308C831.502 716.22 833.287 715.677 835.438 715.677C836.502 715.677 837.459 715.783 838.31 715.996C839.161 716.185 839.835 716.398 840.331 716.634V715.712C840.331 714.601 839.917 713.703 839.09 713.018C838.263 712.308 837.199 711.954 835.899 711.954C834.977 711.954 834.102 712.155 833.275 712.557C832.471 712.958 831.821 713.514 831.325 714.223L828.595 712.131C829.398 711.02 830.439 710.157 831.715 709.543C832.991 708.928 834.41 708.621 835.97 708.621C838.594 708.621 840.615 709.271 842.033 710.571C843.451 711.847 844.16 713.656 844.16 715.996V727.271H840.331V725.108H840.154C839.634 725.888 838.901 726.538 837.955 727.058C837.01 727.578 835.922 727.838 834.693 727.838ZM835.367 724.612C836.313 724.612 837.163 724.387 837.92 723.938C838.676 723.489 839.267 722.886 839.693 722.13C840.118 721.373 840.331 720.558 840.331 719.683C839.787 719.376 839.149 719.128 838.416 718.939C837.707 718.75 836.963 718.655 836.183 718.655C834.717 718.655 833.641 718.951 832.956 719.542C832.27 720.109 831.928 720.853 831.928 721.775C831.928 722.603 832.247 723.288 832.885 723.832C833.523 724.352 834.351 724.612 835.367 724.612Z" fill="#202124"/>
<mask id="path-25-inside-5_10126_185030" fill="white">
<path fill-rule="evenodd" clip-rule="evenodd" d="M1266.31 169.273C1277.03 169.273 1285.72 177.965 1285.72 188.688V215.438C1285.72 226.161 1277.03 234.853 1266.31 234.853H1202.02L1182.13 251.374C1177.39 255.315 1170.2 251.941 1170.2 245.774V234.741C1160.46 233.695 1152.88 225.452 1152.88 215.438V188.688C1152.88 177.965 1161.58 169.273 1172.3 169.273H1266.31Z"/>
</mask>
<path fill-rule="evenodd" clip-rule="evenodd" d="M1266.31 169.273C1277.03 169.273 1285.72 177.965 1285.72 188.688V215.438C1285.72 226.161 1277.03 234.853 1266.31 234.853H1202.02L1182.13 251.374C1177.39 255.315 1170.2 251.941 1170.2 245.774V234.741C1160.46 233.695 1152.88 225.452 1152.88 215.438V188.688C1152.88 177.965 1161.58 169.273 1172.3 169.273H1266.31Z" fill="#538FF7"/>
<path d="M1202.02 234.853L1200.74 233.314L1201.3 232.853H1202.02V234.853ZM1182.13 251.374L1180.86 249.836L1180.86 249.836L1182.13 251.374ZM1170.2 234.741L1170.41 232.752L1172.2 232.944V234.741H1170.2ZM1283.72 188.688C1283.72 179.07 1275.93 171.273 1266.31 171.273V167.273C1278.14 167.273 1287.72 176.861 1287.72 188.688H1283.72ZM1283.72 215.438V188.688H1287.72V215.438H1283.72ZM1266.31 232.853C1275.93 232.853 1283.72 225.056 1283.72 215.438H1287.72C1287.72 227.265 1278.14 236.853 1266.31 236.853V232.853ZM1202.02 232.853H1266.31V236.853H1202.02V232.853ZM1203.3 236.391L1183.41 252.912L1180.86 249.836L1200.74 233.314L1203.3 236.391ZM1183.41 252.912C1177.36 257.936 1168.2 253.636 1168.2 245.774H1172.2C1172.2 250.247 1177.41 252.694 1180.86 249.836L1183.41 252.912ZM1168.2 245.774V234.741H1172.2V245.774H1168.2ZM1154.88 215.438C1154.88 224.419 1161.68 231.814 1170.41 232.752L1169.99 236.729C1159.25 235.576 1150.88 226.485 1150.88 215.438H1154.88ZM1154.88 188.688V215.438H1150.88V188.688H1154.88ZM1172.3 171.273C1162.68 171.273 1154.88 179.07 1154.88 188.688H1150.88C1150.88 176.861 1160.47 167.273 1172.3 167.273V171.273ZM1266.31 171.273H1172.3V167.273H1266.31V171.273Z" fill="#202124" mask="url(#path-25-inside-5_10126_185030)"/>
<path d="M1183.41 186.4H1187.36V196.879H1199.07V186.4H1202.99V211.662H1199.07V200.619H1187.36V211.662H1183.41V186.4ZM1215.87 212.226C1214.1 212.226 1212.52 211.815 1211.1 210.991C1209.72 210.168 1208.62 209.039 1207.82 207.604C1207.05 206.146 1206.66 204.511 1206.66 202.7C1206.66 200.983 1207.04 199.396 1207.79 197.937C1208.56 196.455 1209.63 195.279 1211 194.409C1212.36 193.539 1213.92 193.104 1215.66 193.104C1217.47 193.104 1219.03 193.504 1220.35 194.303C1221.69 195.103 1222.7 196.197 1223.38 197.584C1224.09 198.972 1224.44 200.536 1224.44 202.277C1224.44 202.606 1224.41 203.018 1224.34 203.512H1210.54C1210.68 205.182 1211.27 206.475 1212.3 207.393C1213.36 208.287 1214.59 208.733 1215.97 208.733C1217.08 208.733 1218.03 208.486 1218.83 207.993C1219.65 207.475 1220.31 206.781 1220.81 205.911L1224.09 207.463C1223.24 208.945 1222.14 210.109 1220.77 210.956C1219.41 211.803 1217.77 212.226 1215.87 212.226ZM1220.49 200.548C1220.44 199.913 1220.24 199.29 1219.89 198.678C1219.54 198.043 1219 197.514 1218.27 197.091C1217.56 196.667 1216.69 196.455 1215.66 196.455C1214.41 196.455 1213.35 196.832 1212.48 197.584C1211.63 198.314 1211.05 199.302 1210.72 200.548H1220.49ZM1227.49 186.4H1231.37V211.662H1227.49V186.4ZM1235.45 186.4H1239.33V211.662H1235.45V186.4ZM1251.66 212.226C1249.85 212.226 1248.23 211.815 1246.79 210.991C1245.36 210.145 1244.24 208.992 1243.44 207.534C1242.64 206.076 1242.24 204.453 1242.24 202.665C1242.24 200.877 1242.64 199.254 1243.44 197.796C1244.24 196.338 1245.36 195.197 1246.79 194.374C1248.23 193.527 1249.85 193.104 1251.66 193.104C1253.47 193.104 1255.1 193.527 1256.53 194.374C1257.97 195.221 1259.08 196.373 1259.88 197.831C1260.68 199.29 1261.08 200.901 1261.08 202.665C1261.08 204.453 1260.68 206.076 1259.88 207.534C1259.08 208.992 1257.97 210.145 1256.53 210.991C1255.1 211.815 1253.47 212.226 1251.66 212.226ZM1251.66 208.663C1252.65 208.663 1253.57 208.428 1254.41 207.957C1255.26 207.463 1255.93 206.769 1256.42 205.876C1256.94 204.958 1257.2 203.888 1257.2 202.665C1257.2 201.442 1256.94 200.383 1256.42 199.49C1255.93 198.596 1255.26 197.914 1254.41 197.443C1253.57 196.949 1252.65 196.702 1251.66 196.702C1250.67 196.702 1249.76 196.949 1248.91 197.443C1248.06 197.914 1247.38 198.596 1246.86 199.49C1246.37 200.383 1246.12 201.442 1246.12 202.665C1246.12 203.888 1246.37 204.958 1246.86 205.876C1247.38 206.769 1248.06 207.463 1248.91 207.957C1249.76 208.428 1250.67 208.663 1251.66 208.663Z" fill="black"/>
</g>
<defs>
<clipPath id="clip0_10126_185030">
<rect width="1440" height="921" fill="white"/>
</clipPath>
</defs>
</svg>
